<svg xmlns="http://www.w3.org/2000/svg" width="33.049" height="33.049" viewBox="0 0 33.049 33.049">
  <g id="Group_39" data-name="Group 39" transform="translate(0.216 0.216)">
    <path id="Path_49" data-name="Path 49" d="M16.525,299.668h0A16.309,16.309,0,1,1,32.833,283.36,16.308,16.308,0,0,1,16.525,299.668Z" transform="translate(-0.216 -267.051)" fill="none" stroke="#21e09d" stroke-miterlimit="10" stroke-width="0.432"/>
    <path id="Path_50" data-name="Path 50" d="M28.274,283.2a2.273,2.273,0,0,0-1.6-1.61,53.7,53.7,0,0,0-7.066-.38,53.7,53.7,0,0,0-7.066.38,2.273,2.273,0,0,0-1.6,1.61,25.554,25.554,0,0,0,0,8.762,2.272,2.272,0,0,0,1.6,1.61,53.7,53.7,0,0,0,7.066.38,53.7,53.7,0,0,0,7.066-.38,2.272,2.272,0,0,0,1.6-1.61,25.554,25.554,0,0,0,0-8.762m-10.515,7.071v-5.379l4.727,2.689Z" transform="translate(-3.3 -271.269)" fill="#21e09d"/>
  </g>
</svg>
