<svg xmlns="http://www.w3.org/2000/svg" xmlns:xlink="http://www.w3.org/1999/xlink" width="130" height="129" viewBox="0 0 130 129">
  <defs>
    <clipPath id="clip-path">
      <rect id="Rectangle_17" data-name="Rectangle 17" width="130" height="129" transform="translate(-0.274 -0.242)" fill="#21e09d"/>
    </clipPath>
  </defs>
  <g id="Group_19" data-name="Group 19" transform="translate(0.136 0.11)">
    <rect id="Rectangle_14" data-name="Rectangle 14" width="5" height="4" transform="translate(8.864 31.89)" fill="#21e09d"/>
    <rect id="Rectangle_15" data-name="Rectangle 15" width="4" height="4" transform="translate(17.864 31.89)" fill="#21e09d"/>
    <rect id="Rectangle_16" data-name="Rectangle 16" width="4" height="4" transform="translate(25.864 31.89)" fill="#21e09d"/>
    <g id="Group_18" data-name="Group 18" transform="translate(0.138 0.132)">
      <g id="Group_17" data-name="Group 17" transform="translate(0 0)" clip-path="url(#clip-path)">
        <path id="Path_46" data-name="Path 46" d="M116.376,69.559,99.152,67.107V60.346a21.494,21.494,0,0,0,8.514-15.079h.108A8.62,8.62,0,0,0,111.943,29.1,8.62,8.62,0,0,0,109.9,13.2a9.713,9.713,0,0,0-9.665-8.886,9.6,9.6,0,0,0-4.621,1.193,10.761,10.761,0,0,0-18.78,0,9.6,9.6,0,0,0-4.621-1.193A9.713,9.713,0,0,0,62.542,13.2a8.627,8.627,0,0,0-6.234,10.487l.007.026H8.622A8.632,8.632,0,0,0,0,32.334V81.91a8.632,8.632,0,0,0,8.622,8.622H31.5l-2.874,8.622H25.866a6.466,6.466,0,0,0,0,12.933H43.11v6.466A10.789,10.789,0,0,0,53.887,129.33s6.765-.016,6.912-.047l25.391-5.358,25.451,5.358c.146.031,6.91.046,6.91.046a10.789,10.789,0,0,0,10.777-10.777V84.5a15.192,15.192,0,0,0-12.953-14.937M77.6,62.865a21.539,21.539,0,0,0,17.244,0v5.716a9.288,9.288,0,0,1-17.244,0Zm25.866-19.754a17.244,17.244,0,1,1-34.488,0v-.773A8.616,8.616,0,0,0,83.791,38.8h4.857a8.616,8.616,0,0,0,14.815,3.538Zm-43.11-6.466a4.316,4.316,0,0,1,4.311-4.311v8.622a4.316,4.316,0,0,1-4.311-4.311M97,28.023a8.637,8.637,0,0,0-8.349,6.466H83.791a8.614,8.614,0,0,0-13-5.1l.534-1.6a8.33,8.33,0,0,0,1.96.236,8.626,8.626,0,0,0,7.385-4.176,8.63,8.63,0,0,0,11.1,0,8.626,8.626,0,0,0,7.385,4.176,8.33,8.33,0,0,0,1.96-.236l.534,1.6A8.567,8.567,0,0,0,97,28.023m4.311,8.622A4.311,4.311,0,1,1,97,32.334a4.311,4.311,0,0,1,4.311,4.311m-21.555,0a4.311,4.311,0,1,1-4.311-4.311,4.311,4.311,0,0,1,4.311,4.311m28.021,4.311V32.334a4.311,4.311,0,1,1,0,8.622M64.56,17.247c.054,0,.116.009.183.009a2.155,2.155,0,0,0,2.185-2.125,2.122,2.122,0,0,0-.022-.341l-.014-.092a5.235,5.235,0,0,1-.074-.686,5.4,5.4,0,0,1,5.389-5.389,5.316,5.316,0,0,1,3.983,1.8,2.155,2.155,0,0,0,3.709-1,6.461,6.461,0,0,1,12.638,0,2.156,2.156,0,0,0,3.709,1,5.315,5.315,0,0,1,3.983-1.8,5.4,5.4,0,0,1,5.389,5.389,5.231,5.231,0,0,1-.074.686l-.014.092a2.155,2.155,0,0,0,.512,1.732,2.106,2.106,0,0,0,1.651.734c.068,0,.129,0,.183-.009a4.311,4.311,0,0,1-.1,8.621,17.377,17.377,0,0,0-2.739.054l-.553-1.661a2.155,2.155,0,0,0-3.147-1.171,4.235,4.235,0,0,1-2.182.622A4.316,4.316,0,0,1,94.841,19.4,2.156,2.156,0,0,0,92,17.356l-.439.146a2.155,2.155,0,0,0-1.335,1.276,4.286,4.286,0,0,1-8.024,0A2.155,2.155,0,0,0,80.872,17.5l-.439-.146A2.155,2.155,0,0,0,77.6,19.4a4.316,4.316,0,0,1-4.311,4.311A4.235,4.235,0,0,1,71.1,23.09a2.156,2.156,0,0,0-3.146,1.171L67.4,25.922a17.377,17.377,0,0,0-2.739-.054,4.311,4.311,0,1,1-.1-8.622ZM4.311,32.334a4.316,4.316,0,0,1,4.311-4.311H58.971A8.662,8.662,0,0,0,60.5,29.1a8.62,8.62,0,0,0,4.169,16.166h.108a21.492,21.492,0,0,0,8.514,15.08v6.887l-18.262,3.9a15.078,15.078,0,0,0-7.67,4.3H4.311Zm0,49.576V79.754H44.438A14.925,14.925,0,0,0,43.11,85.9v.323H8.622A4.316,4.316,0,0,1,4.311,81.91m31.73,8.622H43.11v8.622H33.167ZM23.71,105.62a2.062,2.062,0,0,1,.62-1.494c.014-.014.028-.027.042-.042a2.062,2.062,0,0,1,1.494-.619H43.11v4.311H25.866a2.158,2.158,0,0,1-2.155-2.155m36.418,19.4H53.887a6.474,6.474,0,0,1-6.466-6.466V116.4H55.39l5.923,3.949a2.156,2.156,0,0,0,1.2.362h8.4l4.832,1.017Zm64.889-6.466a6.474,6.474,0,0,1-6.466,6.466h-6.242l-40.734-8.576a2.157,2.157,0,0,0-.444-.046H63.161l-5.924-3.949a2.155,2.155,0,0,0-1.2-.362H47.42V101.309H55.6L70.282,107.6a2.171,2.171,0,0,0,.684.168l54.052,4.158Zm0-10.95-19.383-1.491,7.3-3.125,3.9-1.678h8.178Zm0-10.605H116.4a2.161,2.161,0,0,0-.851.175l-1.3.559v-7.2h-4.311V99.58l-9.144,3.919-14.534,1.123-14.6-1.123L62.509,99.58V90.532H58.2v7.2l-1.306-.56A2.159,2.159,0,0,0,56.042,97H47.42V85.9a10.862,10.862,0,0,1,8.512-10.545l18.243-3.9a13.606,13.606,0,0,0,24.145-.108l.526.075,16.915,2.408a10.856,10.856,0,0,1,9.256,10.67Z" transform="translate(0.14 -0.388)" fill="#21e09d"/>
        <path id="Path_47" data-name="Path 47" d="M300.563,175.3H296v4.311h4.563c2.912,0,5.775-.091,8.511-.269l-.281-4.3c-2.643.173-5.41.261-8.23.261" transform="translate(-216.107 -128.267)" fill="#21e09d"/>
      </g>
    </g>
  </g>
</svg>
