<svg id="Group_423" data-name="Group 423" xmlns="http://www.w3.org/2000/svg" xmlns:xlink="http://www.w3.org/1999/xlink" width="30.211" height="30.211" viewBox="0 0 30.211 30.211">
  <defs>
    <clipPath id="clip-path">
      <rect id="Rectangle_1969" data-name="Rectangle 1969" width="30.211" height="30.211" fill="#002d70"/>
    </clipPath>
  </defs>
  <g id="Group_422" data-name="Group 422" clip-path="url(#clip-path)">
    <path id="Path_785" data-name="Path 785" d="M15.106,30.21A15.105,15.105,0,1,1,30.211,15.1,15.123,15.123,0,0,1,15.106,30.21m0-27.7A12.593,12.593,0,1,0,27.7,15.1,12.608,12.608,0,0,0,15.106,2.511" transform="translate(0 0.001)" fill="#002d70"/>
    <path id="Path_786" data-name="Path 786" d="M68.734,74.257a5.117,5.117,0,0,0,2.177-.425,7.5,7.5,0,0,0,1.908-1.358L74.4,74.091a7.254,7.254,0,0,1-5.589,2.551,7.491,7.491,0,0,1-5.454-2.115,7.687,7.687,0,0,1,.041-10.742,7.658,7.658,0,0,1,5.578-2.157,7.3,7.3,0,0,1,5.63,2.489l-1.555,1.7a6.8,6.8,0,0,0-1.96-1.389,5.494,5.494,0,0,0-2.167-.394,5.15,5.15,0,0,0-3.691,1.421,4.79,4.79,0,0,0-1.493,3.629,5.01,5.01,0,0,0,1.483,3.691,4.8,4.8,0,0,0,3.515,1.483" transform="translate(-53.501 -53.887)" fill="#002d70"/>
  </g>
</svg>
